<?xml version="1.0" encoding="UTF-8" standalone="no"?>
<!DOCTYPE svg PUBLIC "-//W3C//DTD SVG 1.1//EN" "http://www.w3.org/Graphics/SVG/1.1/DTD/svg11.dtd">
<svg width="100%" height="100%" viewBox="0 0 400 400" version="1.1" xmlns="http://www.w3.org/2000/svg" style="fill-rule:evenodd;stroke-linejoin:round;">
    <path id="InnerLeft" d="M94.716,100.697L96.745,103.741C87.971,113 80.42,123.463 74.461,134.919C60.884,161.019 56.235,191.372 60.44,220.585C59.284,222.385 58.16,224.181 57.073,225.97C56.762,224.266 56.483,222.554 56.237,220.834C50.085,177.915 65.009,132.916 94.716,100.697Z" style="fill:rgb(150,69,138);fill-rule:nonzero;"/>
    <path id="InnerBottom" d="M151.068,332.254C174.718,341.081 200.71,343.885 225.983,339.201C233.967,337.722 241.779,335.506 249.334,332.625L251.306,335.583C218.685,347.679 181.711,348.487 148.583,335.981L151.068,332.254Z" style="fill:rgb(150,69,138);fill-rule:nonzero;"/>
    <path id="InnerRight" d="M325.079,126.582C333.403,140.368 339.497,155.688 342.705,172.136C351.509,217.267 337.436,266.057 305.693,299.829L303.258,296.176C322.522,275.563 335.985,249.278 340.14,220.293C344.605,189.137 337.874,156.793 322.162,129.377C323.134,128.449 324.107,127.517 325.079,126.582Z" style="fill:rgb(150,69,138);fill-rule:nonzero;"/>
    <path id="InnerTop" d="M148.585,64.168C165.122,57.915 182.83,54.73 200.547,54.758C248.765,54.988 295.411,81.199 322.18,121.98C321.164,122.764 320.148,123.547 319.132,124.328C308.984,108.169 295.617,93.942 279.518,82.992C256.663,67.446 229.112,58.888 201.449,58.581C200.839,58.576 200.23,58.574 199.62,58.575C182.946,58.655 166.452,61.86 150.957,67.726L148.585,64.168Z" style="fill:rgb(150,69,138);fill-rule:nonzero;"/>
    <path id="OuterLeft" d="M59.263,335.424C30.908,305.864 12.078,267.274 6.532,226.76C-1.424,168.643 18.734,107.87 59.375,64.89L70.396,81.421C54.234,98.77 41.409,119.429 33.421,142.543C15.04,195.731 23.892,257.33 57.268,303.369C61.25,308.861 65.56,314.103 70.163,319.074L59.263,335.424Z" style="fill:rgb(70,55,98);fill-rule:nonzero;"/>
    <path id="OuterBottom" d="M302.566,366.06C282.548,378.527 260.322,387.466 237.032,391.933C189.499,401.051 138.834,391.285 97.459,366.06L141.587,366.06C160.266,372.74 180.074,376.344 200.078,376.344C219.861,376.344 239.525,372.747 258.142,366.06L302.566,366.06Z" style="fill:rgb(70,55,98);fill-rule:nonzero;"/>
    <path id="OuterTopRight" d="M142.189,34.086L97.076,34.086C127.653,15.111 163.495,4.887 199.447,4.716C199.867,4.715 200.288,4.715 200.709,4.716C272.107,5.055 341.426,47.032 374.314,111.685C401.404,164.94 402.219,230.682 376.154,284.746C367.186,303.347 355.138,320.379 340.78,335.207L329.881,318.832C341.534,306.324 351.423,292.092 358.961,276.457C384.921,222.611 381.068,155.465 347.893,104.101C351.293,100.667 354.691,97.198 358.085,93.694C354.371,96.68 350.648,99.654 346.921,102.613C345.038,99.763 343.063,96.964 340.998,94.219C308.472,51.01 256.014,24.066 200.648,23.802C200.268,23.802 199.887,23.802 199.507,23.802C179.94,23.896 160.548,27.486 142.189,34.086Z" style="fill:rgb(70,55,98);fill-rule:nonzero;"/>
    <path id="Acrux" d="M193.635,92.87C202.372,92.87 209.465,99.963 209.466,108.7C209.466,99.963 216.559,92.87 225.296,92.87C216.559,92.87 209.466,85.776 209.466,77.039C209.465,85.776 202.372,92.87 193.635,92.87L193.635,92.87Z" style="fill:rgb(150,69,139);"/>
    <path id="Gacrux" d="M224.52,52.697C233.258,52.697 240.351,59.79 240.351,68.528C240.351,59.79 247.444,52.697 256.182,52.697C247.444,52.697 240.351,45.603 240.351,36.866C240.351,45.603 233.258,52.697 224.52,52.697L224.52,52.697Z" style="fill:rgb(150,69,139);"/>
    <path id="Decrux" d="M256.848,77.113C265.585,77.113 272.678,84.206 272.678,92.943C272.678,84.206 279.772,77.113 288.509,77.113C279.772,77.113 272.678,70.019 272.678,61.282C272.678,70.019 265.585,77.113 256.848,77.113L256.848,77.113Z" style="fill:rgb(150,69,139);"/>
    <path id="Mimosa" d="M232.272,142.627C241.009,142.627 248.103,149.72 248.103,158.457C248.103,149.72 255.196,142.627 263.933,142.627C255.196,142.626 248.103,135.533 248.103,126.796C248.103,135.533 241.009,142.626 232.272,142.627L232.272,142.627Z" style="fill:rgb(150,69,139);"/>
    <path id="EpsilonCrucis" d="M249.472,103.873C253.691,103.873 257.117,107.299 257.117,111.518C257.117,107.299 260.543,103.873 264.762,103.873C260.543,103.873 257.117,100.447 257.117,96.228C257.117,100.447 253.691,103.873 249.472,103.873L249.472,103.873Z" style="fill:rgb(150,69,139);"/>
    <path id="StarRight" d="M318.204,199.886C331.606,199.886 342.486,210.766 342.486,224.167C342.486,210.766 353.366,199.886 366.767,199.886C353.366,199.885 342.486,189.006 342.486,175.604C342.486,189.006 331.606,199.885 318.204,199.886L318.204,199.886Z" style="fill:rgb(150,69,138);"/>
    <path id="StarBottom" d="M182.912,342.974C192.386,342.974 200.077,350.665 200.077,360.139C200.077,350.665 207.769,342.974 217.242,342.974C207.769,342.973 200.077,335.282 200.077,325.808C200.077,335.282 192.386,342.973 182.912,342.974L182.912,342.974Z" style="fill:rgb(150,69,138);"/>
    <path id="StarLeft" d="M66.651,122.584C74.159,122.584 80.255,128.68 80.255,136.188C80.255,128.68 86.351,122.584 93.86,122.584C86.351,122.584 80.255,116.488 80.255,108.98C80.255,116.488 74.159,122.584 66.651,122.584L66.651,122.584Z" style="fill:rgb(150,69,138);"/>
    <path id="LambdaBottom" d="M343.485,356.517L265.263,356.517L200.078,258.739L134.893,356.517L56.671,356.517L90.208,306.211C122.607,303.753 177.837,269.544 245.072,208.898L343.485,356.517ZM326.841,347.61L250.518,233.125L250.518,318.343L270.03,347.61L326.841,347.61Z" style="fill:rgb(93,76,134);"/>
    <path id="LambdaTop" d="M347.893,104.101C213.617,239.712 76.287,319.457 44.489,277.082C23.355,248.917 116.278,150.309 116.278,150.309C116.278,150.309 44.015,234.629 62.701,259.255C70.964,270.144 94.713,265.309 127.88,249.703L160.967,200.073L56.671,43.629L134.893,43.629L231.254,188.172C268.124,163.106 307.798,133.674 346.921,102.613C347.248,103.107 347.572,103.603 347.893,104.101Z" style="fill:rgb(93,76,134);"/>
</svg>
